<svg xmlns="http://www.w3.org/2000/svg" viewBox="0 0 900 680" width="900" height="680" font-family="monospace, sans-serif">
  <rect width="900" height="680" fill="#1a1a2e" rx="12"/>

  <!-- Title -->
  <text x="450" y="34" text-anchor="middle" fill="#e0e0e0" font-size="18" font-weight="bold">Bike Computer — Physical Stacking Diagram</text>
  <text x="450" y="52" text-anchor="middle" fill="#888" font-size="11">Side view · HATs connect via stacking headers · TFT via jumper wires</text>

  <!-- ============================================================
       LAYER 3 (top): Waveshare Environment Sensor HAT
       ============================================================ -->
  <g id="waveshare-hat">
    <!-- PCB body -->
    <rect x="120" y="90" width="440" height="70" fill="#1a3a1a" stroke="#38b000" stroke-width="2.5" rx="6"/>
    <!-- PCB texture lines -->
    <line x1="130" y1="100" x2="548" y2="100" stroke="#2a4a2a" stroke-width="0.5"/>
    <line x1="130" y1="148" x2="548" y2="148" stroke="#2a4a2a" stroke-width="0.5"/>
    <!-- Sensors on board -->
    <rect x="140" y="105" width="36" height="24" fill="#0d2900" stroke="#38b000" stroke-width="1" rx="2"/>
    <text x="158" y="121" text-anchor="middle" fill="#70e000" font-size="7">BME280</text>
    <rect x="186" y="105" width="36" height="24" fill="#0d2900" stroke="#38b000" stroke-width="1" rx="2"/>
    <text x="204" y="121" text-anchor="middle" fill="#70e000" font-size="7">ICM20948</text>
    <rect x="232" y="105" width="36" height="24" fill="#0d2900" stroke="#38b000" stroke-width="1" rx="2"/>
    <text x="250" y="121" text-anchor="middle" fill="#70e000" font-size="7">TSL25911</text>
    <rect x="278" y="105" width="36" height="24" fill="#0d2900" stroke="#38b000" stroke-width="1" rx="2"/>
    <text x="296" y="121" text-anchor="middle" fill="#70e000" font-size="7">SGP40</text>
    <rect x="324" y="105" width="36" height="24" fill="#0d2900" stroke="#38b000" stroke-width="1" rx="2"/>
    <text x="342" y="121" text-anchor="middle" fill="#70e000" font-size="7">LPS22HB</text>
    <rect x="370" y="105" width="36" height="24" fill="#0d2900" stroke="#38b000" stroke-width="1" rx="2"/>
    <text x="388" y="121" text-anchor="middle" fill="#70e000" font-size="7">TCS34725</text>
    <!-- Label -->
    <text x="470" y="118" fill="#38b000" font-size="11" font-weight="bold">Waveshare</text>
    <text x="470" y="132" fill="#38b000" font-size="10">Env Sensor HAT</text>
    <text x="470" y="148" fill="#555" font-size="8">I2C · 0x76/0x68/0x29…</text>
    <!-- Bottom stacking header sockets (female) -->
    <rect x="150" y="158" width="200" height="12" fill="#0a0a1a" stroke="#4cc9f0" stroke-width="1" rx="2"/>
    <text x="250" y="168" text-anchor="middle" fill="#4cc9f0" font-size="7">female stacking header (bottom)</text>
    <!-- Small header pins -->
    <line x1="160" y1="158" x2="160" y2="170" stroke="#4cc9f0" stroke-width="1"/>
    <line x1="170" y1="158" x2="170" y2="170" stroke="#4cc9f0" stroke-width="1"/>
    <line x1="180" y1="158" x2="180" y2="170" stroke="#4cc9f0" stroke-width="1"/>
    <line x1="190" y1="158" x2="190" y2="170" stroke="#4cc9f0" stroke-width="1"/>
    <line x1="200" y1="158" x2="200" y2="170" stroke="#4cc9f0" stroke-width="1"/>
    <line x1="210" y1="158" x2="210" y2="170" stroke="#4cc9f0" stroke-width="1"/>
    <line x1="220" y1="158" x2="220" y2="170" stroke="#4cc9f0" stroke-width="1"/>
    <line x1="230" y1="158" x2="230" y2="170" stroke="#4cc9f0" stroke-width="1"/>
    <line x1="240" y1="158" x2="240" y2="170" stroke="#4cc9f0" stroke-width="1"/>
    <line x1="250" y1="158" x2="250" y2="170" stroke="#4cc9f0" stroke-width="1"/>
    <line x1="260" y1="158" x2="260" y2="170" stroke="#4cc9f0" stroke-width="1"/>
    <line x1="270" y1="158" x2="270" y2="170" stroke="#4cc9f0" stroke-width="1"/>
    <line x1="280" y1="158" x2="280" y2="170" stroke="#4cc9f0" stroke-width="1"/>
    <line x1="290" y1="158" x2="290" y2="170" stroke="#4cc9f0" stroke-width="1"/>
    <line x1="300" y1="158" x2="300" y2="170" stroke="#4cc9f0" stroke-width="1"/>
    <line x1="310" y1="158" x2="310" y2="170" stroke="#4cc9f0" stroke-width="1"/>
    <line x1="320" y1="158" x2="320" y2="170" stroke="#4cc9f0" stroke-width="1"/>
    <line x1="330" y1="158" x2="330" y2="170" stroke="#4cc9f0" stroke-width="1"/>
    <line x1="340" y1="158" x2="340" y2="170" stroke="#4cc9f0" stroke-width="1"/>
    <line x1="350" y1="158" x2="350" y2="170" stroke="#4cc9f0" stroke-width="1"/>
  </g>

  <!-- Stacking spacer label 3→2 -->
  <rect x="155" y="172" width="190" height="18" fill="#0a1a2e" stroke="#4cc9f0" stroke-width="1" stroke-dasharray="4,2" rx="3"/>
  <text x="250" y="185" text-anchor="middle" fill="#4cc9f0" font-size="9">↕ stacking headers (11mm recommended)</text>

  <!-- ============================================================
       LAYER 2 (middle): Adafruit Ultimate GPS HAT
       ============================================================ -->
  <g id="gps-hat">
    <!-- PCB body -->
    <rect x="120" y="192" width="440" height="80" fill="#3d1d00" stroke="#ff6b35" stroke-width="2.5" rx="6"/>
    <line x1="130" y1="202" x2="548" y2="202" stroke="#4d2d10" stroke-width="0.5"/>
    <line x1="130" y1="260" x2="548" y2="260" stroke="#4d2d10" stroke-width="0.5"/>
    <!-- GPS module chip -->
    <rect x="140" y="205" width="80" height="56" fill="#1a0d00" stroke="#ff6b35" stroke-width="1.5" rx="3"/>
    <text x="180" y="228" text-anchor="middle" fill="#ff9f1c" font-size="9" font-weight="bold">MTK3339</text>
    <text x="180" y="242" text-anchor="middle" fill="#ff9f1c" font-size="8">GPS Module</text>
    <text x="180" y="255" text-anchor="middle" fill="#888" font-size="7">66 channels</text>
    <!-- GPS antenna connector -->
    <rect x="230" y="210" width="30" height="30" fill="#2a2a2a" stroke="#ff6b35" stroke-width="1" rx="2"/>
    <text x="245" y="229" text-anchor="middle" fill="#ff9f1c" font-size="7">ANT</text>
    <!-- Battery -->
    <rect x="270" y="210" width="50" height="20" fill="#2a1a00" stroke="#e9c46a" stroke-width="1" rx="2"/>
    <text x="295" y="224" text-anchor="middle" fill="#e9c46a" font-size="7">CR1220</text>
    <!-- LED indicators -->
    <circle cx="330" cy="220" r="5" fill="#ff0000" opacity="0.6"/>
    <text x="342" y="223" fill="#888" font-size="7">FIX</text>
    <circle cx="330" cy="235" r="5" fill="#00ff00" opacity="0.6"/>
    <text x="342" y="238" fill="#888" font-size="7">PWR</text>
    <!-- Label -->
    <text x="400" y="225" fill="#ff6b35" font-size="11" font-weight="bold">Adafruit</text>
    <text x="400" y="239" fill="#ff6b35" font-size="11" font-weight="bold">Ultimate GPS HAT</text>
    <text x="400" y="253" fill="#888" font-size="9">UART TX/RX · GPIO14/15</text>
    <text x="400" y="265" fill="#888" font-size="8">PPS on GPIO4 (optional)</text>
    <!-- Bottom stacking header sockets -->
    <rect x="150" y="270" width="200" height="12" fill="#0a0a1a" stroke="#4cc9f0" stroke-width="1" rx="2"/>
    <text x="250" y="280" text-anchor="middle" fill="#4cc9f0" font-size="7">female stacking header (bottom)</text>
    <line x1="160" y1="270" x2="160" y2="282" stroke="#4cc9f0" stroke-width="1"/>
    <line x1="170" y1="270" x2="170" y2="282" stroke="#4cc9f0" stroke-width="1"/>
    <line x1="180" y1="270" x2="180" y2="282" stroke="#4cc9f0" stroke-width="1"/>
    <line x1="190" y1="270" x2="190" y2="282" stroke="#4cc9f0" stroke-width="1"/>
    <line x1="200" y1="270" x2="200" y2="282" stroke="#4cc9f0" stroke-width="1"/>
    <line x1="210" y1="270" x2="210" y2="282" stroke="#4cc9f0" stroke-width="1"/>
    <line x1="220" y1="270" x2="220" y2="282" stroke="#4cc9f0" stroke-width="1"/>
    <line x1="230" y1="270" x2="230" y2="282" stroke="#4cc9f0" stroke-width="1"/>
    <line x1="240" y1="270" x2="240" y2="282" stroke="#4cc9f0" stroke-width="1"/>
    <line x1="250" y1="270" x2="250" y2="282" stroke="#4cc9f0" stroke-width="1"/>
    <line x1="260" y1="270" x2="260" y2="282" stroke="#4cc9f0" stroke-width="1"/>
    <line x1="270" y1="270" x2="270" y2="282" stroke="#4cc9f0" stroke-width="1"/>
    <line x1="280" y1="270" x2="280" y2="282" stroke="#4cc9f0" stroke-width="1"/>
    <line x1="290" y1="270" x2="290" y2="282" stroke="#4cc9f0" stroke-width="1"/>
    <line x1="300" y1="270" x2="300" y2="282" stroke="#4cc9f0" stroke-width="1"/>
    <line x1="310" y1="270" x2="310" y2="282" stroke="#4cc9f0" stroke-width="1"/>
    <line x1="320" y1="270" x2="320" y2="282" stroke="#4cc9f0" stroke-width="1"/>
    <line x1="330" y1="270" x2="330" y2="282" stroke="#4cc9f0" stroke-width="1"/>
    <line x1="340" y1="270" x2="340" y2="282" stroke="#4cc9f0" stroke-width="1"/>
    <line x1="350" y1="270" x2="350" y2="282" stroke="#4cc9f0" stroke-width="1"/>
  </g>

  <!-- Stacking spacer label 2→1 -->
  <rect x="155" y="284" width="190" height="18" fill="#0a1a2e" stroke="#4cc9f0" stroke-width="1" stroke-dasharray="4,2" rx="3"/>
  <text x="250" y="297" text-anchor="middle" fill="#4cc9f0" font-size="9">↕ stacking headers (11mm recommended)</text>

  <!-- ============================================================
       LAYER 1 (bottom): Raspberry Pi Zero
       ============================================================ -->
  <g id="pi-zero">
    <!-- PCB body -->
    <rect x="120" y="304" width="440" height="100" fill="#0d2a0d" stroke="#4cc9f0" stroke-width="2.5" rx="6"/>
    <line x1="130" y1="314" x2="548" y2="314" stroke="#1a3a1a" stroke-width="0.5"/>
    <!-- SoC chip -->
    <rect x="205" y="320" width="70" height="50" fill="#0a0a0a" stroke="#4cc9f0" stroke-width="1.5" rx="4"/>
    <text x="240" y="343" text-anchor="middle" fill="#4cc9f0" font-size="9">BCM2835</text>
    <text x="240" y="356" text-anchor="middle" fill="#4cc9f0" font-size="7">SoC</text>
    <!-- USB ports -->
    <rect x="130" y="350" width="28" height="18" fill="#333" stroke="#888" stroke-width="1" rx="1"/>
    <text x="144" y="362" text-anchor="middle" fill="#888" font-size="6">PWR</text>
    <rect x="162" y="350" width="28" height="18" fill="#333" stroke="#888" stroke-width="1" rx="1"/>
    <text x="176" y="362" text-anchor="middle" fill="#888" font-size="6">USB</text>
    <!-- Camera connector -->
    <rect x="280" y="348" width="40" height="10" fill="#222" stroke="#888" stroke-width="1" rx="1"/>
    <text x="300" y="356" text-anchor="middle" fill="#888" font-size="6">CSI</text>
    <!-- SD card slot -->
    <rect x="440" y="355" width="60" height="20" fill="#222" stroke="#888" stroke-width="1" rx="1"/>
    <text x="470" y="367" text-anchor="middle" fill="#888" font-size="7">microSD</text>
    <!-- Label -->
    <text x="395" y="325" fill="#4cc9f0" font-size="12" font-weight="bold">Raspberry Pi Zero</text>
    <text x="395" y="340" fill="#4cc9f0" font-size="9">ARM11 700MHz · 512MB RAM</text>
    <!-- GPIO header (male) -->
    <rect x="150" y="395" width="200" height="10" fill="#8B6914" stroke="#e9c46a" stroke-width="1" rx="2"/>
    <text x="250" y="403" text-anchor="middle" fill="#1a0d00" font-size="7" font-weight="bold">40-pin male GPIO header</text>
    <line x1="160" y1="394" x2="160" y2="405" stroke="#e9c46a" stroke-width="1.5"/>
    <line x1="170" y1="394" x2="170" y2="405" stroke="#e9c46a" stroke-width="1.5"/>
    <line x1="180" y1="394" x2="180" y2="405" stroke="#e9c46a" stroke-width="1.5"/>
    <line x1="190" y1="394" x2="190" y2="405" stroke="#e9c46a" stroke-width="1.5"/>
    <line x1="200" y1="394" x2="200" y2="405" stroke="#e9c46a" stroke-width="1.5"/>
    <line x1="210" y1="394" x2="210" y2="405" stroke="#e9c46a" stroke-width="1.5"/>
    <line x1="220" y1="394" x2="220" y2="405" stroke="#e9c46a" stroke-width="1.5"/>
    <line x1="230" y1="394" x2="230" y2="405" stroke="#e9c46a" stroke-width="1.5"/>
    <line x1="240" y1="394" x2="240" y2="405" stroke="#e9c46a" stroke-width="1.5"/>
    <line x1="250" y1="394" x2="250" y2="405" stroke="#e9c46a" stroke-width="1.5"/>
    <line x1="260" y1="394" x2="260" y2="405" stroke="#e9c46a" stroke-width="1.5"/>
    <line x1="270" y1="394" x2="270" y2="405" stroke="#e9c46a" stroke-width="1.5"/>
    <line x1="280" y1="394" x2="280" y2="405" stroke="#e9c46a" stroke-width="1.5"/>
    <line x1="290" y1="394" x2="290" y2="405" stroke="#e9c46a" stroke-width="1.5"/>
    <line x1="300" y1="394" x2="300" y2="405" stroke="#e9c46a" stroke-width="1.5"/>
    <line x1="310" y1="394" x2="310" y2="405" stroke="#e9c46a" stroke-width="1.5"/>
    <line x1="320" y1="394" x2="320" y2="405" stroke="#e9c46a" stroke-width="1.5"/>
    <line x1="330" y1="394" x2="330" y2="405" stroke="#e9c46a" stroke-width="1.5"/>
    <line x1="340" y1="394" x2="340" y2="405" stroke="#e9c46a" stroke-width="1.5"/>
    <line x1="350" y1="394" x2="350" y2="405" stroke="#e9c46a" stroke-width="1.5"/>
    <!-- Micro-USB power -->
    <rect x="130" y="405" width="40" height="14" fill="#333" stroke="#e63946" stroke-width="1.5" rx="2"/>
    <text x="150" y="415" text-anchor="middle" fill="#e63946" font-size="7">5V PWR IN</text>
  </g>

  <!-- ============================================================
       Layer labels (left side)
       ============================================================ -->
  <text x="110" y="130" text-anchor="end" fill="#38b000" font-size="12" font-weight="bold">LAYER 3</text>
  <text x="110" y="145" text-anchor="end" fill="#38b000" font-size="9">top</text>
  <line x1="112" y1="130" x2="120" y2="125" stroke="#38b000" stroke-width="1"/>

  <text x="110" y="232" text-anchor="end" fill="#ff6b35" font-size="12" font-weight="bold">LAYER 2</text>
  <text x="110" y="247" text-anchor="end" fill="#ff6b35" font-size="9">middle</text>
  <line x1="112" y1="232" x2="120" y2="227" stroke="#ff6b35" stroke-width="1"/>

  <text x="110" y="354" text-anchor="end" fill="#4cc9f0" font-size="12" font-weight="bold">LAYER 1</text>
  <text x="110" y="369" text-anchor="end" fill="#4cc9f0" font-size="9">base</text>
  <line x1="112" y1="354" x2="120" y2="349" stroke="#4cc9f0" stroke-width="1"/>

  <!-- ============================================================
       TFT Display (right side, connected by wires)
       ============================================================ -->
  <g id="tft-display">
    <!-- PCB -->
    <rect x="620" y="175" width="240" height="200" fill="#16213e" stroke="#3a86ff" stroke-width="2.5" rx="8"/>
    <!-- Screen area -->
    <rect x="630" y="185" width="170" height="130" fill="#001a4d" stroke="#3a86ff" stroke-width="1" rx="4"/>
    <text x="715" y="248" text-anchor="middle" fill="#3a86ff" font-size="14" font-weight="bold">2.4"</text>
    <text x="715" y="266" text-anchor="middle" fill="#3a86ff" font-size="11">ILI9341 TFT</text>
    <text x="715" y="282" text-anchor="middle" fill="#3a86ff" font-size="9">320×240</text>
    <!-- Touch overlay indicator -->
    <rect x="632" y="187" width="166" height="126" fill="none" stroke="#9b59b6" stroke-width="1" stroke-dasharray="3,2" rx="3"/>
    <text x="806" y="200" fill="#9b59b6" font-size="8">touch</text>
    <!-- MicroSD slot -->
    <rect x="806" y="270" width="50" height="20" fill="#222" stroke="#888" stroke-width="1" rx="1"/>
    <text x="831" y="283" text-anchor="middle" fill="#888" font-size="7">μSD</text>
    <!-- Pin header on left edge of TFT -->
    <rect x="620" y="330" width="8" height="40" fill="#8B6914" stroke="#e9c46a" stroke-width="1" rx="1"/>
    <text x="620" y="385" text-anchor="middle" fill="#e9c46a" font-size="7" transform="rotate(-90,620,380)">TFT pins</text>
    <!-- Label -->
    <text x="715" y="365" text-anchor="middle" fill="#3a86ff" font-size="10">Adafruit 2.4" TFT</text>
    <text x="715" y="378" text-anchor="middle" fill="#9b59b6" font-size="9">+ Touchscreen</text>
  </g>

  <!-- Jumper wires from Pi to TFT (colored by signal) -->
  <!-- SPI CLK (blue) -->
  <path d="M 560 340 Q 590 340 620 340" stroke="#3a86ff" stroke-width="2" fill="none"/>
  <!-- SPI MOSI (blue) -->
  <path d="M 560 345 Q 590 348 620 348" stroke="#3a86ff" stroke-width="2" fill="none"/>
  <!-- SPI MISO (blue) -->
  <path d="M 560 350 Q 590 355 620 355" stroke="#3a86ff" stroke-width="2" fill="none"/>
  <!-- CS (blue) -->
  <path d="M 560 355 Q 590 362 620 362" stroke="#3a86ff" stroke-width="2" fill="none"/>
  <!-- DC (blue) -->
  <path d="M 560 360 Q 590 369 620 369" stroke="#4cc9f0" stroke-width="2" fill="none"/>
  <!-- RST (teal) -->
  <path d="M 560 365 Q 590 376 620 365" stroke="#4cc9f0" stroke-width="2" fill="none"/>
  <!-- T_CS (purple) -->
  <path d="M 560 370 Q 590 368 620 370" stroke="#9b59b6" stroke-width="2" fill="none"/>
  <!-- T_IRQ (purple) -->
  <path d="M 560 375 Q 590 374 620 375" stroke="#9b59b6" stroke-width="2" fill="none"/>
  <!-- 3.3V (red) -->
  <path d="M 560 332 Q 590 330 620 332" stroke="#e63946" stroke-width="2" fill="none"/>
  <!-- GND (gray) -->
  <path d="M 560 380 Q 590 382 620 378" stroke="#555" stroke-width="2" fill="none"/>

  <!-- Wire label box -->
  <rect x="556" y="318" width="58" height="75" fill="#0a0a1a" stroke="#3a86ff" stroke-width="1" rx="4"/>
  <text x="585" y="330" text-anchor="middle" fill="#e63946" font-size="7">3.3V</text>
  <text x="585" y="342" text-anchor="middle" fill="#3a86ff" font-size="7">CLK</text>
  <text x="585" y="349" text-anchor="middle" fill="#3a86ff" font-size="7">MOSI</text>
  <text x="585" y="356" text-anchor="middle" fill="#3a86ff" font-size="7">MISO</text>
  <text x="585" y="363" text-anchor="middle" fill="#3a86ff" font-size="7">CS</text>
  <text x="585" y="370" text-anchor="middle" fill="#4cc9f0" font-size="7">DC</text>
  <text x="585" y="377" text-anchor="middle" fill="#4cc9f0" font-size="7">RST</text>
  <text x="585" y="384" text-anchor="middle" fill="#9b59b6" font-size="7">T_CS</text>
  <text x="585" y="391" text-anchor="middle" fill="#9b59b6" font-size="7">T_IRQ</text>

  <!-- Arrow indicating wire direction -->
  <text x="585" y="305" text-anchor="middle" fill="#888" font-size="8">jumper wires</text>
  <line x1="560" y1="308" x2="618" y2="308" stroke="#888" stroke-width="1" stroke-dasharray="4,2" marker-end="url(#arrowGray)"/>

  <!-- GPS Antenna label (top right) -->
  <rect x="620" y="88" width="240" height="75" fill="#1a0d00" stroke="#ff6b35" stroke-width="1.5" rx="6"/>
  <text x="740" y="110" text-anchor="middle" fill="#ff9f1c" font-size="11" font-weight="bold">GPS Antenna</text>
  <text x="740" y="128" text-anchor="middle" fill="#888" font-size="9">External patch or</text>
  <text x="740" y="142" text-anchor="middle" fill="#888" font-size="9">uFL ceramic antenna</text>
  <text x="740" y="156" text-anchor="middle" fill="#ff6b35" font-size="9">connects to GPS HAT uFL port</text>
  <!-- Antenna wire -->
  <path d="M 620 128 Q 575 195 540 240" stroke="#ff6b35" stroke-width="1.5" stroke-dasharray="5,3" fill="none" marker-end="url(#arrowOrange)"/>

  <!-- Power supply note -->
  <rect x="30" y="450" width="220" height="90" fill="#16213e" stroke="#e63946" stroke-width="1.5" rx="6"/>
  <text x="140" y="468" text-anchor="middle" fill="#e63946" font-size="11" font-weight="bold">Power</text>
  <text x="140" y="484" text-anchor="middle" fill="#aaa" font-size="9">5V via micro-USB</text>
  <text x="140" y="498" text-anchor="middle" fill="#aaa" font-size="9">into Pi Zero PWR port</text>
  <text x="140" y="514" text-anchor="middle" fill="#aaa" font-size="9">Pi supplies 3.3V rail to</text>
  <text x="140" y="528" text-anchor="middle" fill="#aaa" font-size="9">all HATs + TFT via header</text>

  <!-- Stack height note -->
  <rect x="30" y="555" width="220" height="75" fill="#16213e" stroke="#4cc9f0" stroke-width="1.5" rx="6"/>
  <text x="140" y="573" text-anchor="middle" fill="#4cc9f0" font-size="11" font-weight="bold">Stack Height Note</text>
  <text x="140" y="589" text-anchor="middle" fill="#aaa" font-size="9">Use 11mm or 15mm female</text>
  <text x="140" y="603" text-anchor="middle" fill="#aaa" font-size="9">stacking headers between</text>
  <text x="140" y="617" text-anchor="middle" fill="#aaa" font-size="9">each layer to clear connectors</text>

  <!-- Footer -->
  <text x="450" y="656" text-anchor="middle" fill="#444" font-size="9">Stack order: Pi Zero (bottom) → GPS HAT → Waveshare Env HAT (top) · TFT via jumper wires</text>
  <text x="450" y="670" text-anchor="middle" fill="#444" font-size="9">bike_computer_stacking_diagram.svg</text>

  <!-- Arrow markers -->
  <defs>
    <marker id="arrowOrange" markerWidth="8" markerHeight="8" refX="6" refY="3" orient="auto">
      <path d="M0,0 L0,6 L8,3 z" fill="#ff6b35"/>
    </marker>
    <marker id="arrowGray" markerWidth="8" markerHeight="8" refX="6" refY="3" orient="auto">
      <path d="M0,0 L0,6 L8,3 z" fill="#888"/>
    </marker>
  </defs>
</svg>
